<svg width="25" height="19" viewBox="0 0 25 19" fill="none" xmlns="http://www.w3.org/2000/svg">
<path opacity="0.2" d="M2.25688 17.0947C0.850681 15.636 0.0957031 14 0.0957031 11.348C0.0957031 6.68133 3.4501 2.49866 8.3281 0.430664L9.54725 2.268C4.99418 4.67333 4.10405 7.79466 3.74908 9.76266C4.48222 9.392 5.44198 9.26266 6.38263 9.348C8.84552 9.57066 10.7869 11.5453 10.7869 14C10.7869 15.2377 10.2835 16.4247 9.38735 17.2998C8.49124 18.175 7.27585 18.6667 6.00855 18.6667C4.54365 18.6667 3.14292 18.0133 2.25688 17.0947ZM15.9093 17.0947C14.5031 15.636 13.7481 14 13.7481 11.348C13.7481 6.68133 17.1025 2.49866 21.9805 0.430664L23.1996 2.268C18.6466 4.67333 17.7564 7.79466 17.4015 9.76266C18.1346 9.392 19.0944 9.26266 20.035 9.348C22.4979 9.57066 24.4393 11.5453 24.4393 14C24.4393 15.2377 23.9359 16.4247 23.0397 17.2998C22.1436 18.175 20.9282 18.6667 19.6609 18.6667C18.196 18.6667 16.7953 18.0133 15.9093 17.0947Z" fill="#0064E5"/>
</svg>
