<svg width="22" height="17" viewBox="0 0 22 17" fill="none" xmlns="http://www.w3.org/2000/svg">
<path d="M21.5832 5.44844C21.7508 5.31523 22 5.43984 22 5.65039V14.4375C22 15.5762 21.0762 16.5 19.9375 16.5H2.0625C0.923828 16.5 0 15.5762 0 14.4375V5.65469C0 5.43984 0.244922 5.31953 0.416797 5.45273C1.3793 6.20039 2.65547 7.15 7.03828 10.334C7.94492 10.9957 9.47461 12.3879 11 12.3793C12.534 12.3922 14.0937 10.9699 14.966 10.334C19.3488 7.15 20.6207 6.19609 21.5832 5.44844ZM11 11C11.9969 11.0172 13.432 9.74531 14.1539 9.22109C19.8559 5.0832 20.2898 4.72227 21.6047 3.69102C21.8539 3.49766 22 3.19688 22 2.87891V2.0625C22 0.923828 21.0762 0 19.9375 0H2.0625C0.923828 0 0 0.923828 0 2.0625V2.87891C0 3.19688 0.146094 3.49336 0.395312 3.69102C1.71016 4.71797 2.14414 5.0832 7.84609 9.22109C8.56797 9.74531 10.0031 11.0172 11 11Z" fill="#39A128" fill-opacity="0.7"/>
</svg>
