<svg width="48" height="48" viewBox="0 0 48 48" fill="none" xmlns="http://www.w3.org/2000/svg">
<path d="M24 23.5C24.9667 23.5 25.7917 23.1583 26.475 22.475C27.1583 21.7917 27.5 20.9667 27.5 20C27.5 19.0333 27.1583 18.2083 26.475 17.525C25.7917 16.8417 24.9667 16.5 24 16.5C23.0333 16.5 22.2083 16.8417 21.525 17.525C20.8417 18.2083 20.5 19.0333 20.5 20C20.5 20.9667 20.8417 21.7917 21.525 22.475C22.2083 23.1583 23.0333 23.5 24 23.5ZM24 44C18.6333 39.4333 14.625 35.1917 11.975 31.275C9.325 27.3583 8 23.7333 8 20.4C8 15.4 9.60833 11.4167 12.825 8.45C16.0417 5.48333 19.7667 4 24 4C28.2333 4 31.9583 5.48333 35.175 8.45C38.3917 11.4167 40 15.4 40 20.4C40 23.7333 38.675 27.3583 36.025 31.275C33.375 35.1917 29.3667 39.4333 24 44Z" fill="#D65745"/>
<ellipse cx="24.5" cy="21" rx="7.5" ry="8" fill="#D65745"/>
<path d="M21.0205 30.1666V29.2041L22.8538 27.8291V22.0771L14.833 24.4375V23.1083L22.8538 18.3875V12.9791C22.8538 12.6583 22.9646 12.3871 23.1861 12.1656C23.4077 11.9441 23.6788 11.8333 23.9997 11.8333C24.3205 11.8333 24.5917 11.9441 24.8132 12.1656C25.0347 12.3871 25.1455 12.6583 25.1455 12.9791V18.3875L33.1663 23.1083V24.4375L25.1455 22.0771V27.8291L26.9788 29.2041V30.1666L23.9997 29.3187L21.0205 30.1666Z" fill="white"/>
</svg>
