<svg width="48" height="48" viewBox="0 0 48 48" fill="none" xmlns="http://www.w3.org/2000/svg">
<path d="M24 23.5C24.9667 23.5 25.7917 23.1583 26.475 22.475C27.1583 21.7917 27.5 20.9667 27.5 20C27.5 19.0333 27.1583 18.2083 26.475 17.525C25.7917 16.8417 24.9667 16.5 24 16.5C23.0333 16.5 22.2083 16.8417 21.525 17.525C20.8417 18.2083 20.5 19.0333 20.5 20C20.5 20.9667 20.8417 21.7917 21.525 22.475C22.2083 23.1583 23.0333 23.5 24 23.5ZM24 44C18.6333 39.4333 14.625 35.1917 11.975 31.275C9.325 27.3583 8 23.7333 8 20.4C8 15.4 9.60833 11.4167 12.825 8.45C16.0417 5.48333 19.7667 4 24 4C28.2333 4 31.9583 5.48333 35.175 8.45C38.3917 11.4167 40 15.4 40 20.4C40 23.7333 38.675 27.3583 36.025 31.275C33.375 35.1917 29.3667 39.4333 24 44Z" fill="#D65745"/>
<ellipse cx="24.5" cy="21" rx="7.5" ry="8" fill="#D65745"/>
<path d="M27.3409 19.1591L26.9432 20.5625H19.4943L19.892 19.1591H27.3409ZM23.7159 28L19.6477 23.0625L19.6364 21.9545H21.6534C22.1572 21.9545 22.5833 21.8769 22.9318 21.7216C23.2803 21.5663 23.5455 21.3409 23.7273 21.0455C23.9091 20.7462 24 20.3826 24 19.9545C24 19.3182 23.8106 18.8125 23.4318 18.4375C23.053 18.0625 22.4602 17.875 21.6534 17.875H19.4943L19.9091 16.3636H21.6534C22.5928 16.3636 23.3674 16.5133 23.9773 16.8125C24.5871 17.1117 25.0417 17.5265 25.3409 18.0568C25.6402 18.5871 25.7898 19.1989 25.7898 19.892C25.7898 20.5095 25.6667 21.0682 25.4205 21.5682C25.1742 22.0682 24.7822 22.4754 24.2443 22.7898C23.7064 23.1042 23 23.2879 22.125 23.3409L22.0739 23.3523L25.7898 27.9034V28H23.7159ZM27.3466 16.3636L26.9432 17.7784L20.9886 17.7443L21.392 16.3636H27.3466Z" fill="white"/>
</svg>
