<svg width="48" height="48" viewBox="0 0 48 48" fill="none" xmlns="http://www.w3.org/2000/svg">
<path d="M24 23.5C24.9667 23.5 25.7917 23.1583 26.475 22.475C27.1583 21.7917 27.5 20.9667 27.5 20C27.5 19.0333 27.1583 18.2083 26.475 17.525C25.7917 16.8417 24.9667 16.5 24 16.5C23.0333 16.5 22.2083 16.8417 21.525 17.525C20.8417 18.2083 20.5 19.0333 20.5 20C20.5 20.9667 20.8417 21.7917 21.525 22.475C22.2083 23.1583 23.0333 23.5 24 23.5ZM24 44C18.6333 39.4333 14.625 35.1917 11.975 31.275C9.325 27.3583 8 23.7333 8 20.4C8 15.4 9.60833 11.4167 12.825 8.45C16.0417 5.48333 19.7667 4 24 4C28.2333 4 31.9583 5.48333 35.175 8.45C38.3917 11.4167 40 15.4 40 20.4C40 23.7333 38.675 27.3583 36.025 31.275C33.375 35.1917 29.3667 39.4333 24 44Z" fill="#D65745"/>
<ellipse cx="24.5" cy="21" rx="7.5" ry="8" fill="#D65745"/>
<path d="M18.7923 27.8333C18.1534 27.8333 17.6118 27.6111 17.1673 27.1666C16.7229 26.7222 16.5007 26.1805 16.5007 25.5416H14.834V17.625C14.834 17.2222 14.9763 16.8784 15.2611 16.5937C15.5458 16.309 15.8895 16.1666 16.2923 16.1666H28.2923L33.1673 21.0416V25.5416H31.5006C31.5006 26.1805 31.2784 26.7222 30.834 27.1666C30.3895 27.6111 29.8479 27.8333 29.209 27.8333C28.5701 27.8333 28.0284 27.6111 27.584 27.1666C27.1395 26.7222 26.9173 26.1805 26.9173 25.5416H21.084C21.084 26.1805 20.8618 26.7222 20.4173 27.1666C19.9729 27.6111 19.4312 27.8333 18.7923 27.8333ZM26.5006 20.3333H30.5423L27.6257 17.4166H26.5006V20.3333ZM21.2923 20.3333H25.2507V17.4166H21.2923V20.3333ZM16.084 20.3333H20.0423V17.4166H16.084V20.3333ZM18.7923 26.7916C19.1395 26.7916 19.4347 26.6701 19.6777 26.427C19.9208 26.184 20.0423 25.8888 20.0423 25.5416C20.0423 25.1944 19.9208 24.8993 19.6777 24.6562C19.4347 24.4132 19.1395 24.2916 18.7923 24.2916C18.4451 24.2916 18.15 24.4132 17.9069 24.6562C17.6638 24.8993 17.5423 25.1944 17.5423 25.5416C17.5423 25.8888 17.6638 26.184 17.9069 26.427C18.15 26.6701 18.4451 26.7916 18.7923 26.7916ZM29.209 26.7916C29.5562 26.7916 29.8513 26.6701 30.0944 26.427C30.3375 26.184 30.459 25.8888 30.459 25.5416C30.459 25.1944 30.3375 24.8993 30.0944 24.6562C29.8513 24.4132 29.5562 24.2916 29.209 24.2916C28.8618 24.2916 28.5666 24.4132 28.3236 24.6562C28.0805 24.8993 27.959 25.1944 27.959 25.5416C27.959 25.8888 28.0805 26.184 28.3236 26.427C28.5666 26.6701 28.8618 26.7916 29.209 26.7916ZM16.084 24.2916H16.8548C17.0909 23.9305 17.3861 23.6666 17.7402 23.5C18.0944 23.3333 18.4451 23.25 18.7923 23.25C19.1395 23.25 19.4902 23.3333 19.8444 23.5C20.1986 23.6666 20.4937 23.9305 20.7298 24.2916H27.2715C27.5076 23.9305 27.8027 23.6666 28.1569 23.5C28.5111 23.3333 28.8618 23.25 29.209 23.25C29.5562 23.25 29.9069 23.3333 30.2611 23.5C30.6152 23.6666 30.9104 23.9305 31.1465 24.2916H31.9173V21.5833H16.084V24.2916Z" fill="#F4F9FD"/>
</svg>
