<svg width="48" height="48" viewBox="0 0 48 48" fill="none" xmlns="http://www.w3.org/2000/svg">
<path d="M24 23.5C24.9667 23.5 25.7917 23.1583 26.475 22.475C27.1583 21.7917 27.5 20.9667 27.5 20C27.5 19.0333 27.1583 18.2083 26.475 17.525C25.7917 16.8417 24.9667 16.5 24 16.5C23.0333 16.5 22.2083 16.8417 21.525 17.525C20.8417 18.2083 20.5 19.0333 20.5 20C20.5 20.9667 20.8417 21.7917 21.525 22.475C22.2083 23.1583 23.0333 23.5 24 23.5ZM24 44C18.6333 39.4333 14.625 35.1917 11.975 31.275C9.325 27.3583 8 23.7333 8 20.4C8 15.4 9.60833 11.4167 12.825 8.45C16.0417 5.48333 19.7667 4 24 4C28.2333 4 31.9583 5.48333 35.175 8.45C38.3917 11.4167 40 15.4 40 20.4C40 23.7333 38.675 27.3583 36.025 31.275C33.375 35.1917 29.3667 39.4333 24 44Z" fill="#D65745"/>
<ellipse cx="24.5" cy="21" rx="7.5" ry="8" fill="#D65745"/>
<path d="M29.7576 26.3818H31.1333V27.7576H16V26.3818H17.3758V14.6879C17.3758 14.5054 17.4482 14.3305 17.5772 14.2015C17.7062 14.0725 17.8812 14 18.0636 14H29.0697C29.2521 14 29.4271 14.0725 29.5561 14.2015C29.6851 14.3305 29.7576 14.5054 29.7576 14.6879V26.3818ZM22.8788 18.1273H21.503V19.503H22.8788V20.8788H24.2545V19.503H25.6303V18.1273H24.2545V16.7515H22.8788V18.1273ZM24.9424 26.3818H26.3182V22.2545H20.8152V26.3818H22.1909V23.6303H24.9424V26.3818Z" fill="white"/>
</svg>
