<svg width="48" height="48" viewBox="0 0 48 48" fill="none" xmlns="http://www.w3.org/2000/svg">
<path d="M24 23.5C24.9667 23.5 25.7917 23.1583 26.475 22.475C27.1583 21.7917 27.5 20.9667 27.5 20C27.5 19.0333 27.1583 18.2083 26.475 17.525C25.7917 16.8417 24.9667 16.5 24 16.5C23.0333 16.5 22.2083 16.8417 21.525 17.525C20.8417 18.2083 20.5 19.0333 20.5 20C20.5 20.9667 20.8417 21.7917 21.525 22.475C22.2083 23.1583 23.0333 23.5 24 23.5ZM24 44C18.6333 39.4333 14.625 35.1917 11.975 31.275C9.325 27.3583 8 23.7333 8 20.4C8 15.4 9.60833 11.4167 12.825 8.45C16.0417 5.48333 19.7667 4 24 4C28.2333 4 31.9583 5.48333 35.175 8.45C38.3917 11.4167 40 15.4 40 20.4C40 23.7333 38.675 27.3583 36.025 31.275C33.375 35.1917 29.3667 39.4333 24 44Z" fill="#50B1D4"/>
<ellipse cx="24.5" cy="21" rx="7.5" ry="8" fill="#50B1D4"/>
<path d="M18.1429 29C17.8381 29 17.5714 28.8857 17.3429 28.6571C17.1143 28.4286 17 28.1619 17 27.8571V17.7619C17 17.4571 17.1143 17.1905 17.3429 16.9619C17.5714 16.7333 17.8381 16.619 18.1429 16.619H20.2381C20.2381 15.6159 20.5746 14.7619 21.2476 14.0571C21.9206 13.3524 22.7587 13 23.7619 13C24.7651 13 25.6349 13.3524 26.3714 14.0571C27.1079 14.7619 27.4762 15.6159 27.4762 16.619H29.5714C29.8762 16.619 30.1429 16.7333 30.3714 16.9619C30.6 17.1905 30.7143 17.4571 30.7143 17.7619V27.8571C30.7143 28.1619 30.6 28.4286 30.3714 28.6571C30.1429 28.8857 29.8762 29 29.5714 29H18.1429ZM23.8571 22.3333C24.8603 22.3333 25.7302 21.9651 26.4667 21.2286C27.2032 20.4921 27.5714 19.6222 27.5714 18.619H26.4286C26.4286 19.3175 26.1746 19.9206 25.6667 20.4286C25.1587 20.9365 24.5556 21.1905 23.8571 21.1905C23.1587 21.1905 22.5556 20.9365 22.0476 20.4286C21.5397 19.9206 21.2857 19.3175 21.2857 18.619H20.1429C20.1429 19.6222 20.5111 20.4921 21.2476 21.2286C21.9841 21.9651 22.854 22.3333 23.8571 22.3333ZM21.381 16.619H26.3333C26.3333 15.9206 26.0952 15.3333 25.619 14.8571C25.1429 14.381 24.5556 14.1429 23.8571 14.1429C23.1587 14.1429 22.5714 14.381 22.0952 14.8571C21.619 15.3333 21.381 15.9206 21.381 16.619Z" fill="white"/>
</svg>