<svg width="48" height="48" viewBox="0 0 48 48" fill="none" xmlns="http://www.w3.org/2000/svg">
<path d="M24 23.5C24.9667 23.5 25.7917 23.1583 26.475 22.475C27.1583 21.7917 27.5 20.9667 27.5 20C27.5 19.0333 27.1583 18.2083 26.475 17.525C25.7917 16.8417 24.9667 16.5 24 16.5C23.0333 16.5 22.2083 16.8417 21.525 17.525C20.8417 18.2083 20.5 19.0333 20.5 20C20.5 20.9667 20.8417 21.7917 21.525 22.475C22.2083 23.1583 23.0333 23.5 24 23.5ZM24 44C18.6333 39.4333 14.625 35.1917 11.975 31.275C9.325 27.3583 8 23.7333 8 20.4C8 15.4 9.60833 11.4167 12.825 8.45C16.0417 5.48333 19.7667 4 24 4C28.2333 4 31.9583 5.48333 35.175 8.45C38.3917 11.4167 40 15.4 40 20.4C40 23.7333 38.675 27.3583 36.025 31.275C33.375 35.1917 29.3667 39.4333 24 44Z" fill="#50B1D4"/>
<ellipse cx="24.5" cy="21" rx="7.5" ry="8" fill="#50B1D4"/>
<path d="M17.333 25.9167V18C17.333 17.4306 17.465 16.934 17.7288 16.5104C17.9927 16.0868 18.399 15.7396 18.9476 15.4688C19.4962 15.1979 20.1906 14.9965 21.0309 14.8646C21.8712 14.7327 22.8608 14.6667 23.9997 14.6667C25.1941 14.6667 26.2115 14.7292 27.0518 14.8542C27.892 14.9792 28.5795 15.1771 29.1143 15.4479C29.649 15.7188 30.0413 16.0625 30.2913 16.4792C30.5413 16.8959 30.6663 17.4028 30.6663 18V25.9167C30.6663 26.7361 30.3851 27.4271 29.8226 27.9896C29.2601 28.5521 28.5691 28.8334 27.7497 28.8334L28.9997 30.0834V30.5H27.5413L25.8747 28.8334H22.1247L20.458 30.5H18.9997V30.0834L20.2497 28.8334C19.4302 28.8334 18.7393 28.5521 18.1768 27.9896C17.6143 27.4271 17.333 26.7361 17.333 25.9167ZM23.9997 15.9167C22.333 15.9167 21.1316 16.0243 20.3955 16.2396C19.6594 16.4549 19.1316 16.7639 18.8122 17.1667H29.2497C28.9997 16.7917 28.4684 16.4896 27.6559 16.2604C26.8434 16.0313 25.6247 15.9167 23.9997 15.9167ZM18.583 21.6459H23.458V18.4167H18.583V21.6459ZM27.7497 22.8959H18.583H29.4163H27.7497ZM24.708 21.6459H29.4163V18.4167H24.708V21.6459ZM20.9788 26.4375C21.2983 26.4375 21.5691 26.3264 21.7913 26.1042C22.0136 25.882 22.1247 25.6111 22.1247 25.2917C22.1247 24.9722 22.0136 24.7014 21.7913 24.4792C21.5691 24.257 21.2983 24.1459 20.9788 24.1459C20.6594 24.1459 20.3886 24.257 20.1663 24.4792C19.9441 24.7014 19.833 24.9722 19.833 25.2917C19.833 25.6111 19.9441 25.882 20.1663 26.1042C20.3886 26.3264 20.6594 26.4375 20.9788 26.4375ZM27.0205 26.4375C27.34 26.4375 27.6108 26.3264 27.833 26.1042C28.0552 25.882 28.1663 25.6111 28.1663 25.2917C28.1663 24.9722 28.0552 24.7014 27.833 24.4792C27.6108 24.257 27.34 24.1459 27.0205 24.1459C26.7011 24.1459 26.4302 24.257 26.208 24.4792C25.9858 24.7014 25.8747 24.9722 25.8747 25.2917C25.8747 25.6111 25.9858 25.882 26.208 26.1042C26.4302 26.3264 26.7011 26.4375 27.0205 26.4375ZM20.2497 27.6875H27.7497C28.2219 27.6875 28.6177 27.5139 28.9372 27.1667C29.2566 26.8195 29.4163 26.4028 29.4163 25.9167V22.8959H18.583V25.9167C18.583 26.4028 18.7427 26.8195 19.0622 27.1667C19.3816 27.5139 19.7775 27.6875 20.2497 27.6875ZM23.9997 17.1667H29.2497H18.8122H23.9997Z" fill="#F4F9FD"/>
</svg>
