<svg width="48" height="48" viewBox="0 0 48 48" fill="none" xmlns="http://www.w3.org/2000/svg">
<path d="M24 23.5C24.9667 23.5 25.7917 23.1583 26.475 22.475C27.1583 21.7917 27.5 20.9667 27.5 20C27.5 19.0333 27.1583 18.2083 26.475 17.525C25.7917 16.8417 24.9667 16.5 24 16.5C23.0333 16.5 22.2083 16.8417 21.525 17.525C20.8417 18.2083 20.5 19.0333 20.5 20C20.5 20.9667 20.8417 21.7917 21.525 22.475C22.2083 23.1583 23.0333 23.5 24 23.5ZM24 44C18.6333 39.4333 14.625 35.1917 11.975 31.275C9.325 27.3583 8 23.7333 8 20.4C8 15.4 9.60833 11.4167 12.825 8.45C16.0417 5.48333 19.7667 4 24 4C28.2333 4 31.9583 5.48333 35.175 8.45C38.3917 11.4167 40 15.4 40 20.4C40 23.7333 38.675 27.3583 36.025 31.275C33.375 35.1917 29.3667 39.4333 24 44Z" fill="#50B1D4"/>
<ellipse cx="24.5" cy="21" rx="7.5" ry="8" fill="#50B1D4"/>
<path d="M21.35 26.175L24 24.225L26.575 26.175L25.5 23.025L28.15 21.125H24.95L24 18L23.05 21.125H19.85L22.45 23.025L21.35 26.175ZM24 32.975C21.6667 32.3916 19.75 31.0375 18.25 28.9125C16.75 26.7875 16 24.4583 16 21.925V15.975L24 12.975L32 15.975V21.925C32 24.4583 31.25 26.7875 29.75 28.9125C28.25 31.0375 26.3333 32.3916 24 32.975ZM24 31.425C25.9167 30.7916 27.4792 29.5958 28.6875 27.8375C29.8958 26.0791 30.5 24.1083 30.5 21.925V17.025L24 14.575L17.5 17.025V21.925C17.5 24.1083 18.1042 26.0791 19.3125 27.8375C20.5208 29.5958 22.0833 30.7916 24 31.425Z" fill="#F4F9FD"/>
</svg>
