<svg width="48" height="48" viewBox="0 0 48 48" fill="none" xmlns="http://www.w3.org/2000/svg">
<path d="M24 23.5C24.9667 23.5 25.7917 23.1583 26.475 22.475C27.1583 21.7917 27.5 20.9667 27.5 20C27.5 19.0333 27.1583 18.2083 26.475 17.525C25.7917 16.8417 24.9667 16.5 24 16.5C23.0333 16.5 22.2083 16.8417 21.525 17.525C20.8417 18.2083 20.5 19.0333 20.5 20C20.5 20.9667 20.8417 21.7917 21.525 22.475C22.2083 23.1583 23.0333 23.5 24 23.5ZM24 44C18.6333 39.4333 14.625 35.1917 11.975 31.275C9.325 27.3583 8 23.7333 8 20.4C8 15.4 9.60833 11.4167 12.825 8.45C16.0417 5.48333 19.7667 4 24 4C28.2333 4 31.9583 5.48333 35.175 8.45C38.3917 11.4167 40 15.4 40 20.4C40 23.7333 38.675 27.3583 36.025 31.275C33.375 35.1917 29.3667 39.4333 24 44Z" fill="#50B1D4"/>
<ellipse cx="24.5" cy="21" rx="7.5" ry="8" fill="#50B1D4"/>
<path d="M16.9368 16.2775V15H30.3933V16.2775H16.9368ZM17.0433 28.35V23.1335H16V21.856L16.9368 17.555H30.372L31.3089 21.856V23.1335H30.2656V28.35H28.988V23.1335H25.1768V28.35H17.0433ZM18.3208 27.0725H23.8993V23.1335H18.3208V27.0725Z" fill="white"/>
</svg>
